<?xml version="1.0" standalone="no"?>
<!DOCTYPE svg PUBLIC "-//W3C//DTD SVG 20010904//EN"
 "http://www.w3.org/TR/2001/REC-SVG-20010904/DTD/svg10.dtd">
<svg version="1.0" xmlns="http://www.w3.org/2000/svg"
 width="1024.000000pt" height="1024.000000pt" viewBox="0 0 1024.000000 1024.000000"
 preserveAspectRatio="xMidYMid meet">
<metadata>
Created by potrace 1.11, written by Peter Selinger 2001-2013
</metadata>
<g transform="translate(0.000000,1024.000000) scale(0.100000,-0.100000)"
fill="#000000" stroke="none">
<path d="M4848 10235 c-2 -1 -48 -5 -103 -9 -122 -9 -187 -14 -240 -21 -80
-11 -184 -26 -207 -30 -13 -3 -41 -7 -63 -10 -22 -3 -47 -7 -55 -10 -8 -2 -28
-7 -45 -9 -25 -5 -121 -25 -189 -41 -301 -69 -668 -194 -951 -324 -143 -66
-376 -187 -440 -229 -11 -7 -32 -18 -47 -25 -16 -6 -28 -15 -28 -19 0 -4 -5
-8 -11 -8 -36 0 -588 -396 -669 -480 -3 -3 -43 -39 -90 -80 -394 -345 -789
-836 -1056 -1310 -245 -437 -431 -927 -540 -1425 -11 -49 -53 -285 -59 -330
-12 -87 -13 -99 -20 -160 -3 -33 -8 -71 -10 -85 -26 -161 -26 -855 0 -1011 2
-13 6 -49 9 -79 16 -163 67 -446 117 -650 182 -744 546 -1458 1043 -2050 267
-317 628 -652 931 -865 39 -27 72 -52 75 -55 25 -29 392 -250 558 -336 314
-164 808 -355 1060 -409 9 -2 55 -13 102 -25 47 -12 92 -23 100 -25 8 -2 53
-10 100 -19 47 -9 95 -18 106 -20 74 -15 281 -43 369 -51 39 -3 111 -10 160
-15 95 -8 678 -6 780 4 114 11 170 17 185 21 8 2 42 7 75 10 110 12 112 13
255 39 289 53 657 156 882 246 295 119 537 235 763 365 139 81 450 289 530
356 11 10 56 46 100 81 255 202 573 519 770 768 32 41 62 77 65 80 18 15 236
326 275 392 6 9 46 77 90 150 186 311 362 703 465 1038 18 58 38 123 45 145
15 46 78 303 94 385 21 102 25 128 36 200 2 19 6 44 9 55 4 25 14 94 21 160 3
28 8 66 10 85 16 130 20 231 20 510 0 273 -7 459 -20 542 -2 13 -6 47 -9 77
-6 53 -20 149 -31 226 -4 22 -16 85 -27 140 -11 55 -22 111 -24 125 -3 14 -19
79 -35 145 -17 66 -32 127 -34 135 -37 148 -167 512 -246 688 -91 202 -259
519 -340 640 -16 24 -29 47 -29 51 0 4 -9 16 -20 26 -11 10 -20 22 -20 27 0
20 -267 380 -369 498 -12 14 -45 52 -74 85 -83 97 -373 383 -487 480 -321 275
-649 497 -1000 677 -550 282 -1090 448 -1735 533 -27 4 -71 8 -215 21 -52 5
-657 13 -662 9z"/>
</g>
</svg>
